<svg width="181" height="48" viewBox="0 0 181 48" fill="none" xmlns="http://www.w3.org/2000/svg">
<path d="M16.32 16.7H17.9L22.3 29.52H22.32L26.68 16.7H28.2L23.06 31H21.54L16.32 16.7ZM29.6548 17.08H31.3348V18.76H29.6548V17.08ZM29.8548 20.8H31.1548V31H29.8548V20.8ZM37.7895 31.28C34.6695 31.28 32.9295 29 32.9295 25.9C32.9295 22.64 34.8495 20.54 37.7895 20.54C40.7295 20.54 42.3895 22.6 42.3895 25.44C42.3895 25.72 42.3895 26 42.3695 26.16H34.2895C34.3095 28.24 35.4095 30.16 37.8095 30.16C39.9295 30.16 40.7295 28.72 40.9295 27.88H42.2495C41.7495 29.74 40.3495 31.28 37.7895 31.28ZM37.7295 21.66C35.7495 21.66 34.3895 23.12 34.2895 25.02H41.0095C41.0095 23.2 39.8295 21.66 37.7295 21.66ZM42.9602 20.8H44.4002L46.9402 29.52H46.9802L49.3602 20.8H50.8202L53.2002 29.52H53.2402L55.8002 20.8H57.2002L53.9402 31H52.5002L50.0802 22.38H50.0402L47.6602 31H46.2002L42.9602 20.8ZM64.7105 29.28H64.6705V34.54H63.3705V20.8H64.6705V22.44H64.7105C65.2905 21.46 66.3705 20.54 68.1505 20.54C70.6305 20.54 72.6305 22.54 72.6305 25.9C72.6305 29.24 70.6305 31.24 68.1505 31.24C66.3705 31.24 65.3105 30.36 64.7105 29.28ZM67.9905 21.68C66.0305 21.68 64.6705 23.32 64.6705 25.9C64.6705 28.46 66.0305 30.1 67.9905 30.1C70.1105 30.1 71.2705 28.18 71.2705 25.9C71.2705 23.6 70.1105 21.68 67.9905 21.68ZM74.4252 20.8H75.7252V22.88H75.7652C76.2652 21.54 77.2052 20.56 78.6652 20.56C79.0252 20.56 79.2852 20.58 79.5452 20.62V21.9C79.3252 21.86 79.1052 21.84 78.9252 21.84C77.0652 21.84 75.7252 23.32 75.7252 25.3V31H74.4252V20.8ZM84.8608 31.28C81.8008 31.28 79.9608 29.08 79.9608 25.92C79.9608 22.74 81.8008 20.54 84.8608 20.54C87.9008 20.54 89.7608 22.74 89.7608 25.92C89.7608 29.08 87.9008 31.28 84.8608 31.28ZM84.8608 30.14C87.2408 30.14 88.4008 28.26 88.4008 25.92C88.4008 23.56 87.2408 21.68 84.8608 21.68C82.4608 21.68 81.3208 23.56 81.3208 25.92C81.3208 28.26 82.4608 30.14 84.8608 30.14ZM99.0141 22.52H99.0541V16.7H100.354V31H99.0541V29.34H99.0141C98.4141 30.34 97.3341 31.26 95.5541 31.26C93.0741 31.26 91.0741 29.26 91.0741 25.9C91.0741 22.56 93.0741 20.56 95.5741 20.56C97.3341 20.56 98.4141 21.44 99.0141 22.52ZM95.7141 30.12C97.6741 30.12 99.0541 28.48 99.0541 25.9C99.0541 23.34 97.6741 21.7 95.7141 21.7C93.5941 21.7 92.4341 23.62 92.4341 25.9C92.4341 28.2 93.5941 30.12 95.7141 30.12ZM103.906 27.68C103.906 28.98 104.486 30.1 106.266 30.1C108.186 30.1 109.466 28.74 109.466 27.24V20.8H110.766V31H109.466V29.56H109.426C108.866 30.4 107.766 31.24 105.946 31.24C104.106 31.24 102.606 30.22 102.606 27.96V20.8H103.906V27.68ZM120.458 24.38C120.378 23.24 119.558 21.7 117.438 21.7C114.938 21.7 113.918 23.82 113.918 25.9C113.918 28 114.938 30.14 117.438 30.14C119.578 30.14 120.378 28.6 120.458 27.36H121.818C121.678 29.56 119.918 31.26 117.438 31.26C114.518 31.26 112.558 29.1 112.558 25.9C112.558 22.72 114.518 20.56 117.438 20.56C119.918 20.56 121.578 22.22 121.818 24.38H120.458ZM122.571 20.8H124.071V17.4H125.371V20.8H127.451V21.94H125.371V28.38C125.371 29.64 125.671 29.94 126.671 29.94C126.991 29.94 127.151 29.92 127.451 29.9V31C127.051 31.06 126.811 31.08 126.491 31.08C124.991 31.08 124.071 30.58 124.071 28.36V21.94H122.571V20.8Z" fill="#161010"/>
<rect x="139" y="6" width="36" height="36" rx="18" fill="#161010"/>
<path fill-rule="evenodd" clip-rule="evenodd" d="M161.703 22.4058C162.797 23.2716 164.055 23.8967 165 23.8948L165 23.9239L165 23.953L165 23.953L164.999 24.3601L165 24.7674V24.7965V24.8256C164.055 24.8236 162.797 25.4488 161.703 26.3147C161.166 26.7391 160.692 27.2032 160.339 27.6403C159.976 28.0891 159.776 28.4669 159.726 28.7204L158.87 28.5519C158.961 28.0873 159.27 27.5747 159.66 27.0919C160.06 26.5974 160.582 26.0887 161.161 25.6303C161.542 25.3294 161.957 25.0418 162.389 24.7924L149 24.7674L149.001 23.8948L162.375 23.9198C161.948 23.6723 161.537 23.3878 161.161 23.0901C160.582 22.6318 160.06 22.1231 159.66 21.6286C159.27 21.1457 158.961 20.6331 158.87 20.1685L159.726 20C159.776 20.2535 159.976 20.6313 160.339 21.0801C160.692 21.5172 161.166 21.9814 161.703 22.4058Z" fill="white"/>
<rect x="0.5" y="0.5" width="180" height="47" rx="23.5" stroke="#161010"/>
</svg>
