<svg width="155" height="18" viewBox="0 0 155 18" fill="none" xmlns="http://www.w3.org/2000/svg">
<path d="M16.3378 11.8678C16.3378 13.45 16.4811 14.471 16.8493 15.6233H13.9257C14.3098 14.4889 14.4372 13.4819 14.4372 11.8678V6.01873L9.9155 11.6111L5.42567 6.06649V11.8659C5.42567 13.448 5.56897 14.469 5.93715 15.6213H3.01359C3.39769 14.4869 3.52506 13.4799 3.52506 11.8659V3.94099C3.12504 3.42951 2.69317 2.98172 2.24738 2.5817V2.53394H5.13909C5.41174 3.1887 5.71426 3.68425 6.41679 4.53206L9.93143 8.8786L13.8461 4.02059C14.278 3.49319 14.5964 2.99765 14.8213 2.53394H17.3289V2.5817C16.9289 3.07725 16.6582 3.54097 16.5308 3.95492C16.4035 4.37087 16.3398 4.9301 16.3398 5.64855V11.8639L16.3378 11.8678Z" fill="#193963"/>
<path d="M32.1536 15.6213H28.9733C29.0052 15.5099 29.0211 15.3666 29.0211 15.1894C29.0211 14.6143 28.8619 13.9754 28.3663 12.9047L27.7434 11.4658H22.8376L22.1351 12.9525C21.6873 13.8799 21.4644 14.6302 21.4644 15.1894C21.4644 15.3327 21.4803 15.476 21.4962 15.6213H18.3637V15.5735C18.9548 14.8551 19.5777 13.8481 20.2325 12.5544L25.4408 2.2175H25.4885L30.3465 12.6022C30.9217 13.8799 31.3854 14.6163 32.1516 15.5735V15.6213H32.1536ZM23.5581 9.96523H27.0727L25.3791 6.09833L23.5581 9.96523Z" fill="#193963"/>
<path d="M44.6161 15.6213H41.2129C41.0855 14.9984 40.5104 13.9914 39.7421 13.0321L36.0842 8.52634V11.8659C36.0842 13.448 36.2275 14.469 36.5957 15.6213H33.6721C34.0403 14.471 34.1836 13.448 34.1836 11.8659V6.28939C34.1836 4.7072 34.0403 3.68426 33.6721 2.53394H36.5957C36.2275 3.68426 36.0842 4.7072 36.0842 6.28939V8.33528L39.376 4.38878C39.9511 3.70217 40.1422 3.23845 40.2059 2.53592H43.818V2.59961C42.6677 3.47926 41.6288 4.45246 40.7014 5.55502L38.353 8.36713L42.2836 13.2092C43.1633 14.2481 43.9295 15.0302 44.6161 15.5576V15.6213Z" fill="#193963"/>
<path d="M58.4519 15.6213H55.2716C55.3034 15.5099 55.3194 15.3666 55.3194 15.1894C55.3194 14.6143 55.1601 13.9754 54.6646 12.9047L54.0417 11.4658H49.1359L48.4334 12.9525C47.9856 13.8799 47.7627 14.6302 47.7627 15.1894C47.7627 15.3327 47.7786 15.476 47.7945 15.6213H44.662V15.5735C45.2531 14.8551 45.876 13.8481 46.5308 12.5544L51.739 2.2175H51.7868L56.6448 12.6022C57.22 13.8799 57.6837 14.6163 58.4499 15.5735V15.6213H58.4519ZM49.8563 9.96523H53.371L51.6773 6.09833L49.8563 9.96523Z" fill="#193963"/>
<path d="M63.0988 15.6213H59.9663C60.3345 14.471 60.4778 13.448 60.4778 11.8659V6.28939C60.4778 4.7072 60.3345 3.68426 59.9663 2.53394H63.067C65.4632 2.53394 67.0931 3.92307 67.0931 5.82568C67.0931 6.91231 66.4383 7.90342 65.3039 8.60595C66.9657 9.58114 67.732 10.5882 67.732 12.0091C67.732 14.1346 65.6383 15.6193 63.0988 15.6193V15.6213ZM62.3804 8.5741C64.0899 8.25368 65.1288 7.13522 65.1288 5.92121C65.1288 4.61168 63.9785 3.63649 62.3804 3.63649V8.5741ZM62.3804 8.82885V14.5168C64.5059 14.5168 65.7199 13.446 65.7199 12.0091C65.7199 10.5722 64.3467 9.14927 62.3804 8.82885Z" fill="#193963"/>
<path d="M70.8646 6.29138C70.8646 4.70919 70.7213 3.68624 70.3531 2.53592H73.2766C72.9085 3.68624 72.7652 4.70919 72.7652 6.29138V11.8678C72.7652 13.45 72.9085 14.471 73.2766 15.6233H70.3531C70.7213 14.473 70.8646 13.45 70.8646 11.8678V6.29138Z" fill="#193963"/>
<path d="M97.7377 14.5187L95.7396 15.7487C94.5415 15.5098 92.9912 14.471 91.5045 12.9843C90.1453 14.7576 88.2446 15.7487 85.9599 15.7487C82.6522 15.7487 80.8153 14.1506 80.8153 11.7544C80.8153 10.2041 81.5656 9.11742 83.3707 8.2716C82.4114 7.71236 81.9318 6.8327 81.9318 5.6187C81.9318 3.89322 83.4185 2.40656 85.3509 2.40656C87.1719 2.40656 88.579 3.50911 88.579 5.42564C88.579 6.44859 88.0993 7.29442 87.2535 7.8855C88.6924 8.39698 89.986 9.13135 91.1523 10.1065C91.7115 8.74724 91.9822 7.21482 91.9822 5.47342C91.9822 4.99379 91.9662 4.56192 91.9344 4.17981C91.5185 4.17981 91.0866 4.21164 90.6249 4.27533C90.1771 4.32309 89.8427 4.38677 89.6338 4.46638V2.53393H96.5198L96.5038 4.61167C95.7854 4.33902 94.6669 4.17981 93.6917 4.17981H93.628C93.6758 4.69128 93.6917 5.12314 93.6917 5.45749C93.6917 7.71037 93.2917 9.67466 92.4777 11.3862C94.444 13.1595 96.2173 14.0869 97.7358 14.4531V14.5167L97.7377 14.5187ZM84.9867 8.97412C83.4682 9.66073 82.8612 10.413 82.8612 11.5474C82.8612 12.9047 84.0593 13.9117 86.0256 13.9117C87.7511 13.9117 89.1899 13.1614 90.2129 11.7703C88.9352 10.5085 87.2097 9.66073 84.9887 8.97412H84.9867ZM85.3867 7.42378C86.346 7.02376 86.8575 6.36899 86.8575 5.55501C86.8575 4.74103 86.2346 4.11612 85.2912 4.11612C84.3479 4.11612 83.6772 4.7868 83.6772 5.6187C83.6772 6.45059 84.125 6.99192 85.3867 7.42378Z" fill="#193963"/>
<path d="M104.478 12.6181H104.542C105.101 13.257 105.581 13.7048 105.997 13.9436C106.413 14.1824 106.893 14.3118 107.436 14.3118C108.586 14.3118 109.482 13.4799 109.482 12.3793C109.482 11.436 108.97 10.8927 106.988 9.77419C106.045 9.24679 105.374 8.70347 104.974 8.14423C104.59 7.585 104.399 6.89838 104.399 6.09833C104.367 4.22956 106.077 2.32696 108.377 2.37472C109.273 2.37472 110.103 2.56578 110.871 2.94988V4.93209L110.823 4.94802C109.943 4.1818 109.257 3.92507 108.377 3.92507C107.115 3.92507 106.331 4.80472 106.331 5.76199C106.331 6.71926 106.922 7.45564 108.696 8.43082C110.789 9.61298 111.508 10.3474 111.556 12.0589C111.556 14.3914 109.637 15.7825 107.241 15.7825C106.218 15.7825 105.292 15.6074 104.476 15.271V12.6181H104.478Z" fill="#193963"/>
<path d="M120.806 15.7823C116.812 15.8619 113.999 12.5224 114.063 9.08732C113.999 5.47516 117.132 2.29686 120.869 2.37646C124.577 2.3287 127.771 5.10897 127.708 8.9918C127.787 12.8746 124.625 15.846 120.806 15.7823ZM121.19 14.3911C123.795 14.3911 125.616 12.2019 125.616 9.46943C125.664 6.45034 123.284 3.686 120.487 3.76561C118.139 3.76561 116.173 5.7319 116.173 8.65546C116.125 11.6606 118.266 14.4548 121.19 14.3911Z" fill="#193963"/>
<path d="M142.264 11.3564C142.264 13.257 142.359 14.4551 142.616 15.6233H140.204C140.045 15.1596 139.693 14.5685 139.133 13.8819L133.157 6.30729V11.3564C133.157 12.3156 133.189 13.0978 133.268 13.7207C133.348 14.3436 133.475 14.9665 133.668 15.6213H130.745C130.936 14.9665 131.065 14.3277 131.145 13.7048C131.224 13.0818 131.256 12.2977 131.256 11.3564V4.30916C130.697 3.60663 130.281 3.17477 129.626 2.59961V2.53592H132.854C132.998 2.87226 133.159 3.19068 133.366 3.5111C133.573 3.83152 133.893 4.26141 134.325 4.7888L140.365 12.443V6.80285C140.365 5.85951 140.333 5.07737 140.254 4.45444C140.174 3.83152 140.047 3.19268 139.854 2.53791H142.777C142.586 3.19268 142.457 3.81561 142.377 4.43853C142.298 5.06145 142.266 5.84558 142.266 6.80285V11.3564H142.264Z" fill="#193963"/>
<path d="M145.601 12.6181H145.665C146.224 13.257 146.704 13.7048 147.12 13.9436C147.536 14.1824 148.015 14.3118 148.559 14.3118C149.709 14.3118 150.605 13.4799 150.605 12.3793C150.605 11.436 150.093 10.8927 148.111 9.77419C147.168 9.24679 146.497 8.70347 146.097 8.14423C145.713 7.585 145.522 6.89838 145.522 6.09833C145.49 4.22956 147.2 2.32696 149.5 2.37472C150.396 2.37472 151.226 2.56578 151.994 2.94988V4.93209L151.946 4.94802C151.066 4.1818 150.38 3.92507 149.5 3.92507C148.238 3.92507 147.454 4.80472 147.454 5.76199C147.454 6.71926 148.045 7.45564 149.819 8.43082C151.912 9.61298 152.631 10.3474 152.678 12.0589C152.678 14.3914 150.76 15.7825 148.364 15.7825C147.341 15.7825 146.415 15.6074 145.599 15.271V12.6181H145.601Z" fill="#193963"/>
</svg>
